<?xml version="1.0" encoding="iso-8859-1"?>
<!-- Generator: Adobe Illustrator 16.0.0, SVG Export Plug-In . SVG Version: 6.00 Build 0)  -->
<!DOCTYPE svg PUBLIC "-//W3C//DTD SVG 1.1//EN" "http://www.w3.org/Graphics/SVG/1.1/DTD/svg11.dtd">
<svg version="1.1" id="Layer_1" xmlns="http://www.w3.org/2000/svg" xmlns:xlink="http://www.w3.org/1999/xlink" x="0px" y="0px"
	 width="40px" height="40px" viewBox="0 0 40 40" style="enable-background:new 0 0 40 40;" xml:space="preserve">
<g>
	<g style="opacity:0.75;">
		<path style="fill:#AEAEFF;" d="M19.431,23.557c0.28-3.887,2.004-7.417,3.875-10.171l6.986,2.776L27.531,3L12.638,9.149
			l6.501,2.582c-2.135,3.243-3.96,7.264-4.272,11.574c-0.457,6.303,2.161,10.322,5.298,12.719l5.383-1.629
			C22.989,33.357,18.921,30.598,19.431,23.557z"/>
		<path style="fill:#AEAEFF;" d="M19.431,23.557l0.154-1.367c0.078-0.453,0.177-0.899,0.265-1.352
			c0.106-0.447,0.246-0.885,0.367-1.328c0.134-0.439,0.309-0.865,0.459-1.298c0.162-0.43,0.362-0.844,0.542-1.267
			c0.188-0.419,0.411-0.821,0.615-1.233c0.435-0.81,0.915-1.594,1.419-2.362l0.027-0.042l0.049,0.019
			c2.331,0.921,4.678,1.802,7.021,2.695l-0.203,0.17L27.191,3.071l0.473,0.25c-2.469,1.061-4.932,2.129-7.412,3.159l-7.429,3.117
			l-0.006-0.9c2.176,0.838,4.334,1.72,6.497,2.592l0.526,0.212l-0.305,0.489c-0.291,0.468-0.599,0.927-0.877,1.402
			c-0.265,0.483-0.562,0.949-0.801,1.445c-0.241,0.495-0.511,0.977-0.716,1.488c-0.218,0.505-0.447,1.006-0.62,1.528
			c-0.192,0.515-0.376,1.033-0.513,1.564c-0.161,0.526-0.3,1.056-0.402,1.595c-0.131,0.534-0.215,1.076-0.275,1.621
			c-0.03,0.264-0.084,0.562-0.094,0.797l-0.024,0.84c0.005,0.555-0.08,1.133-0.001,1.664l0.154,1.623l0.368,1.604
			c0.135,0.529,0.37,1.029,0.549,1.549c0.179,0.521,0.497,0.979,0.738,1.471c0.244,0.494,0.618,0.906,0.921,1.366
			c0.317,0.45,0.728,0.825,1.088,1.243c0.389,0.393,0.823,0.734,1.233,1.105L20.12,35.87l5.405-1.552l-0.006,0.146
			c-1.037-0.437-2.021-1.011-2.863-1.757c-0.426-0.365-0.817-0.773-1.162-1.217c-0.352-0.438-0.658-0.911-0.917-1.409
			c-0.145-0.241-0.245-0.504-0.356-0.763c-0.12-0.254-0.207-0.521-0.289-0.787c-0.09-0.268-0.173-0.533-0.224-0.811
			c-0.053-0.273-0.137-0.543-0.165-0.822c-0.082-0.555-0.141-1.109-0.146-1.67C19.354,24.673,19.423,24.114,19.431,23.557z
			 M19.431,23.557c-0.001,0.56-0.064,1.116-0.015,1.674c0.012,0.562,0.077,1.113,0.165,1.666c0.031,0.276,0.118,0.545,0.173,0.816
			c0.054,0.273,0.14,0.539,0.232,0.803c0.085,0.268,0.174,0.529,0.296,0.78c0.114,0.254,0.216,0.515,0.362,0.751
			c0.262,0.49,0.57,0.956,0.924,1.385c0.347,0.436,0.736,0.834,1.162,1.189c0.843,0.729,1.818,1.283,2.848,1.701l0.197,0.08
			l-0.205,0.064l-5.358,1.707L20.13,36.2l-0.061-0.054c-0.431-0.364-0.886-0.707-1.297-1.097c-0.382-0.417-0.816-0.793-1.158-1.247
			c-0.327-0.463-0.726-0.882-0.994-1.385c-0.266-0.502-0.608-0.97-0.811-1.504c-0.203-0.531-0.462-1.047-0.619-1.596l-0.432-1.657
			l-0.213-1.716c-0.095-0.577-0.027-1.125-0.048-1.688v-0.84c0.005-0.324,0.051-0.578,0.074-0.871
			c0.046-0.57,0.117-1.137,0.237-1.695l0.158-0.841l0.224-0.826c0.137-0.555,0.321-1.094,0.514-1.63
			c0.174-0.543,0.404-1.064,0.624-1.589c0.207-0.531,0.478-1.032,0.722-1.545c0.242-0.515,0.541-0.999,0.809-1.5
			c0.282-0.493,0.592-0.968,0.887-1.454l0.221,0.702c-2.171-0.849-4.347-1.688-6.505-2.572l-1.109-0.45l1.1-0.447l7.464-3.032
			c2.483-1.02,4.983-2.001,7.481-2.99l0.394-0.156l0.079,0.406l2.57,13.202l0.054,0.276L30.238,16.3
			c-2.316-0.958-4.629-1.927-6.956-2.857l0.075-0.023c-0.512,0.759-1,1.535-1.44,2.336c-0.208,0.407-0.435,0.806-0.627,1.221
			c-0.185,0.419-0.388,0.83-0.556,1.256c-0.155,0.43-0.333,0.854-0.472,1.29c-0.126,0.44-0.271,0.876-0.382,1.32
			c-0.093,0.448-0.197,0.896-0.28,1.347L19.431,23.557z"/>
	</g>
	<g>
		<g>
			<path style="fill:#DCDBFF;" d="M17.431,23.557c0.28-3.887,2.004-7.417,3.875-10.171l6.986,2.776L25.531,3L10.638,9.149
				l6.501,2.582c-2.135,3.243-3.96,7.264-4.272,11.574c-0.457,6.303,2.161,10.322,5.298,12.719l5.383-1.629
				C20.989,33.357,16.921,30.598,17.431,23.557z"/>
			<path style="fill:#DCDBFF;" d="M17.431,23.557l0.154-1.367c0.078-0.453,0.177-0.899,0.265-1.352
				c0.106-0.447,0.246-0.885,0.367-1.328c0.134-0.439,0.308-0.865,0.459-1.298c0.162-0.43,0.362-0.844,0.542-1.267
				c0.188-0.419,0.411-0.821,0.615-1.233c0.435-0.81,0.915-1.594,1.419-2.362l0.027-0.042l0.049,0.019
				c2.331,0.921,4.678,1.802,7.021,2.695l-0.203,0.17L25.191,3.071l0.473,0.25c-2.469,1.061-4.932,2.129-7.412,3.159l-7.429,3.117
				l-0.006-0.9c2.176,0.838,4.334,1.72,6.497,2.592l0.526,0.212l-0.305,0.489c-0.291,0.468-0.599,0.927-0.877,1.402
				c-0.265,0.483-0.562,0.949-0.801,1.445c-0.241,0.495-0.511,0.977-0.716,1.488c-0.218,0.505-0.447,1.006-0.62,1.528
				c-0.192,0.515-0.376,1.033-0.513,1.564c-0.161,0.526-0.3,1.056-0.402,1.595c-0.131,0.534-0.215,1.076-0.275,1.621
				c-0.03,0.264-0.084,0.562-0.094,0.797l-0.024,0.84c0.005,0.555-0.08,1.133-0.001,1.664l0.154,1.623l0.368,1.604
				c0.135,0.529,0.37,1.029,0.549,1.549c0.179,0.521,0.497,0.979,0.738,1.471c0.244,0.494,0.618,0.906,0.921,1.366
				c0.317,0.45,0.728,0.825,1.088,1.243c0.389,0.393,0.823,0.734,1.233,1.105L18.12,35.87l5.405-1.552l-0.006,0.146
				c-1.037-0.437-2.021-1.011-2.863-1.757c-0.426-0.365-0.817-0.773-1.162-1.217c-0.352-0.438-0.658-0.911-0.917-1.409
				c-0.145-0.241-0.245-0.504-0.356-0.763c-0.12-0.254-0.207-0.521-0.289-0.787c-0.09-0.268-0.173-0.533-0.224-0.811
				c-0.053-0.273-0.137-0.543-0.165-0.822c-0.082-0.555-0.141-1.109-0.146-1.67C17.354,24.673,17.423,24.114,17.431,23.557z
				 M17.431,23.557c-0.001,0.56-0.064,1.116-0.015,1.674c0.012,0.562,0.077,1.113,0.165,1.666c0.031,0.276,0.118,0.545,0.173,0.816
				c0.054,0.273,0.14,0.539,0.232,0.803c0.085,0.268,0.174,0.529,0.296,0.78c0.114,0.254,0.216,0.515,0.362,0.751
				c0.262,0.49,0.571,0.956,0.924,1.385c0.347,0.436,0.737,0.834,1.163,1.189c0.843,0.729,1.818,1.283,2.848,1.701l0.197,0.08
				l-0.205,0.064l-5.358,1.707L18.13,36.2l-0.061-0.054c-0.431-0.364-0.886-0.707-1.297-1.097c-0.382-0.417-0.816-0.793-1.158-1.247
				c-0.327-0.463-0.726-0.882-0.994-1.385c-0.266-0.502-0.608-0.97-0.811-1.504c-0.203-0.531-0.462-1.047-0.619-1.596l-0.432-1.657
				l-0.213-1.716c-0.095-0.577-0.027-1.125-0.048-1.688v-0.84c0.005-0.324,0.051-0.578,0.074-0.871
				c0.046-0.57,0.117-1.137,0.237-1.695l0.158-0.841l0.224-0.826c0.137-0.555,0.321-1.094,0.514-1.63
				c0.174-0.543,0.404-1.064,0.624-1.589c0.207-0.531,0.478-1.032,0.722-1.545c0.242-0.515,0.541-0.999,0.809-1.5
				c0.282-0.493,0.592-0.968,0.887-1.454l0.221,0.702c-2.171-0.849-4.347-1.688-6.505-2.572l-1.109-0.45l1.1-0.447l7.464-3.032
				c2.484-1.02,4.983-2.001,7.481-2.99l0.394-0.156l0.079,0.406l2.57,13.202l0.054,0.276L28.238,16.3
				c-2.316-0.958-4.629-1.927-6.956-2.857l0.075-0.023c-0.512,0.759-1,1.535-1.44,2.336c-0.208,0.407-0.435,0.806-0.627,1.221
				c-0.184,0.419-0.388,0.83-0.555,1.256c-0.156,0.43-0.334,0.854-0.473,1.29c-0.126,0.44-0.271,0.876-0.382,1.32
				c-0.093,0.448-0.197,0.896-0.28,1.347L17.431,23.557z"/>
		</g>
	</g>
</g>
</svg>
