<?xml version="1.0" encoding="iso-8859-1"?>
<!-- Generator: Adobe Illustrator 16.0.0, SVG Export Plug-In . SVG Version: 6.00 Build 0)  -->
<!DOCTYPE svg PUBLIC "-//W3C//DTD SVG 1.1//EN" "http://www.w3.org/Graphics/SVG/1.1/DTD/svg11.dtd">
<svg version="1.1" id="Layer_1" xmlns="http://www.w3.org/2000/svg" xmlns:xlink="http://www.w3.org/1999/xlink" x="0px" y="0px"
	 width="170px" height="100px" viewBox="0 0 170 100" style="enable-background:new 0 0 170 100;" xml:space="preserve">
<g>
	<g>
		<g>
			<rect x="5.403" y="15.091" style="fill:none;" width="165.195" height="74.589"/>
		</g>
		<g style="enable-background:new    ;">
			<path style="fill:#D5D4F8;" d="M26.804,61.287h-0.1c-0.7,8.4-0.7,16.901-0.8,24.502c-5.201,0.5-16.301,0.6-17.401,0l-0.1-0.101
				c0-24.201,0.2-36.603,0.2-67.704v-0.1c6.9-1.2,33.502-3,44.703-0.2c0,3.5,0.3,11.4,0,14.801c-7.2,0.5-18.401,0.8-26.702,1.6
				c-1.5,3.5-1,6.901,0.2,9c0.1,0.101,0.1,0.101,0.2,0.101c3.8,0.5,9.601,0.3,12.601,0c0.8,2-0.2,11.601,0.3,16.4
				c0,0.101-0.1,0.2-0.3,0.2C35.505,60.487,30.804,60.587,26.804,61.287z"/>
			<path style="fill:#D5D4F8;" d="M96.705,85.889c-2.801-0.3-7.301,0.6-39.503,0.1v-1.8c1.2-30.002,0.7-40.502,0.3-68.604
				c2.7-1.1,12.201-1.3,16.001,0.3c-0.5,17.301,0.4,36.903,0.1,54.103v0.101c2.6-0.8,22.701,1,25.901,0.6c0,0.7,0,1.5-0.101,2.2
				c-0.1,1.3-0.199,2.801-0.1,3.9C99.805,86.389,99.505,85.889,96.705,85.889z"/>
			<path style="fill:#D5D4F8;" d="M117.902,35.585v0.3c-0.101,16.101-1,33.302-0.101,49.403c-1.3,1.5-12.301,0.1-14.101,0.6
				c1.3-16.901-1-34.802,0.6-50.503v-0.1c0.5-0.1,2.101,0.1,2.801,0.1c1.699,0.1,4.8,0.3,9.1,0.2H117.902z M117.502,14.084
				c0,1.7,0.3,8.8,0.3,12.801c-1.2,1.8-8.3,0.4-13.501,0.7c0-3.9-0.5-7.7-0.4-13.801L117.502,14.084z"/>
			<path style="fill:#D5D4F8;" d="M168.504,36.886c0,0.9,0,1.8-0.101,2.601c-1.601,12.7-14.601,22.201-27.302,20.101
				c0.3,3.7-0.1,5.7,0.4,25.102v0.101c-0.101,0-0.2,0.1-0.301,0.1c-3.699,1-12.2,0.9-16.701,0.4
				c-0.799-19.401,0.101-46.703-0.699-68.905c16.5-4.4,43.502-2.3,44.703,20.402V36.886z M138.701,30.285c-0.1,0-0.199,0-0.3,0.1
				c0.3,4.8-0.399,11,0.899,15h0.301c4.2-0.3,10,0.301,13.201-2.899c2.199-3,1.699-7.801-1.801-9.901
				C147.702,29.885,143.002,29.185,138.701,30.285z"/>
		</g>
	</g>
	<g>
		<g>
			<rect x="2.403" y="12.091" style="fill:none;" width="165.195" height="74.589"/>
		</g>
		<g style="enable-background:new    ;">
			<path style="fill:#DCDBFF;" d="M23.804,58.287h-0.1c-0.7,8.4-0.7,16.901-0.8,24.502c-5.201,0.5-16.301,0.6-17.401,0l-0.1-0.101
				c0-24.201,0.2-36.603,0.2-67.704v-0.1c6.9-1.2,33.502-3,44.703-0.2c0,3.5,0.3,11.4,0,14.801c-7.2,0.5-18.401,0.8-26.702,1.6
				c-1.5,3.5-1,6.901,0.2,9c0.1,0.101,0.1,0.101,0.2,0.101c3.8,0.5,9.601,0.3,12.601,0c0.8,2-0.2,11.601,0.3,16.4
				c0,0.101-0.1,0.2-0.3,0.2C32.505,57.487,27.804,57.587,23.804,58.287z"/>
			<path style="fill:#DCDBFF;" d="M93.705,82.889c-2.801-0.3-7.301,0.6-39.503,0.1v-1.8c1.2-30.002,0.7-40.502,0.3-68.604
				c2.7-1.1,12.201-1.3,16.001,0.3c-0.5,17.301,0.4,36.903,0.1,54.103v0.101c2.6-0.8,22.701,1,25.901,0.6c0,0.7,0,1.5-0.101,2.2
				c-0.1,1.3-0.199,2.801-0.1,3.9C96.805,83.389,96.505,82.889,93.705,82.889z"/>
		</g>
		<g style="enable-background:new    ;">
			<path style="fill:#FFD873;" d="M114.902,32.585v0.3c-0.101,16.101-1,33.302-0.101,49.403c-1.3,1.5-12.301,0.1-14.101,0.6
				c1.3-16.901-1-34.802,0.6-50.503v-0.1c0.5-0.1,2.101,0.1,2.801,0.1c1.699,0.1,4.8,0.3,9.1,0.2H114.902z M114.502,11.084
				c0,1.7,0.3,8.8,0.3,12.801c-1.2,1.8-8.3,0.4-13.501,0.7c0-3.9-0.5-7.7-0.4-13.801L114.502,11.084z"/>
		</g>
		<g style="enable-background:new    ;">
			<path style="fill:#DCDBFF;" d="M165.504,33.886c0,0.9,0,1.8-0.1,2.601c-1.601,12.7-14.602,22.201-27.303,20.101
				c0.301,3.7-0.1,5.7,0.4,25.102v0.101c-0.1,0-0.199,0.1-0.3,0.1c-3.7,1-12.2,0.9-16.701,0.4c-0.8-19.401,0.101-46.703-0.7-68.905
				c16.501-4.4,43.503-2.3,44.703,20.402V33.886z M135.701,27.285c-0.1,0-0.199,0-0.299,0.1c0.299,4.8-0.4,11,0.899,15h0.3
				c4.201-0.3,10.001,0.301,13.201-2.899c2.2-3,1.7-7.801-1.801-9.901C144.703,26.885,140.002,26.185,135.701,27.285z"/>
		</g>
	</g>
</g>
</svg>
