<?xml version="1.0" encoding="iso-8859-1"?>
<!-- Generator: Adobe Illustrator 16.0.0, SVG Export Plug-In . SVG Version: 6.00 Build 0)  -->
<!DOCTYPE svg PUBLIC "-//W3C//DTD SVG 1.1//EN" "http://www.w3.org/Graphics/SVG/1.1/DTD/svg11.dtd">
<svg version="1.1" id="Layer_1" xmlns="http://www.w3.org/2000/svg" xmlns:xlink="http://www.w3.org/1999/xlink" x="0px" y="0px"
	 width="170px" height="100px" viewBox="0 0 170 100" style="enable-background:new 0 0 170 100;" xml:space="preserve">
<g>
	<rect x="5.403" y="15.091" style="fill:none;" width="165.195" height="74.589"/>
</g>
<g>
	<g>
		<path style="fill:#AEAEFF;" d="M27.804,62.287h-0.1c-0.7,8.4-0.7,16.9-0.8,24.502c-5.201,0.5-16.301,0.6-17.401,0l-0.1-0.102
			c0-24.201,0.2-36.603,0.2-67.704v-0.1c6.9-1.2,33.502-3,44.703-0.2c0,3.5,0.3,11.4,0,14.801c-7.2,0.5-18.401,0.8-26.702,1.6
			c-1.5,3.5-1,6.901,0.2,9c0.1,0.101,0.1,0.101,0.2,0.101c3.8,0.5,9.601,0.3,12.601,0c0.8,2-0.2,11.601,0.3,16.4
			c0,0.102-0.1,0.2-0.3,0.2C36.505,61.486,31.804,61.587,27.804,62.287z"/>
		<path style="fill:#AEAEFF;" d="M97.705,86.889c-2.801-0.3-7.301,0.601-39.503,0.101v-1.8c1.2-30.002,0.7-40.502,0.3-68.604
			c2.7-1.1,12.201-1.3,16.001,0.3c-0.5,17.301,0.4,36.903,0.1,54.104v0.101c2.6-0.8,22.702,1,25.901,0.601
			c0,0.699,0,1.5-0.102,2.199c-0.1,1.301-0.198,2.801-0.1,3.9C100.805,87.389,100.505,86.889,97.705,86.889z"/>
		<path style="fill:#AEAEFF;" d="M118.902,36.585v0.3c-0.102,16.102-1,33.303-0.102,49.403c-1.3,1.5-12.301,0.101-14.101,0.601
			c1.3-16.902-1-34.803,0.6-50.504v-0.1c0.5-0.1,2.101,0.1,2.802,0.1c1.698,0.1,4.799,0.3,9.1,0.2H118.902z M118.502,15.084
			c0,1.7,0.3,8.8,0.3,12.801c-1.2,1.8-8.3,0.4-13.501,0.7c0-3.9-0.5-7.7-0.4-13.801L118.502,15.084z"/>
		<path style="fill:#AEAEFF;" d="M169.504,37.886c0,0.9,0,1.8-0.1,2.601c-1.602,12.701-14.603,22.201-27.303,20.101
			c0.301,3.7-0.101,5.7,0.399,25.102v0.102c-0.101,0-0.199,0.1-0.3,0.1c-3.7,1-12.2,0.9-16.701,0.4
			c-0.8-19.4,0.102-46.703-0.7-68.905c16.501-4.4,43.503-2.3,44.703,20.402L169.504,37.886L169.504,37.886z M139.701,31.285
			c-0.1,0-0.199,0-0.299,0.1c0.299,4.8-0.4,11,0.898,15h0.301c4.201-0.3,10,0.301,13.201-2.899c2.199-3,1.699-7.801-1.802-9.901
			C148.703,30.885,144.002,30.185,139.701,31.285z"/>
	</g>
	<g>
		<g style="enable-background:new    ;">
			<path style="fill:#DCDBFF;" d="M23.804,58.287h-0.1c-0.7,8.4-0.7,16.9-0.8,24.502c-5.201,0.5-16.301,0.6-17.401,0l-0.1-0.102
				c0-24.201,0.2-36.603,0.2-67.704v-0.1c6.9-1.2,33.502-3,44.703-0.2c0,3.5,0.3,11.4,0,14.801c-7.2,0.5-18.401,0.8-26.702,1.6
				c-1.5,3.5-1,6.901,0.2,9c0.1,0.101,0.1,0.101,0.2,0.101c3.8,0.5,9.601,0.3,12.601,0c0.8,2-0.2,11.601,0.3,16.4
				c0,0.102-0.1,0.2-0.3,0.2C32.505,57.486,27.804,57.587,23.804,58.287z"/>
			<path style="fill:#DCDBFF;" d="M93.705,82.889c-2.801-0.3-7.301,0.601-39.503,0.101v-1.8c1.2-30.002,0.7-40.502,0.3-68.604
				c2.7-1.1,12.201-1.3,16.001,0.3c-0.5,17.301,0.4,36.903,0.1,54.104v0.101c2.6-0.8,22.702,1,25.901,0.601
				c0,0.699,0,1.5-0.102,2.199c-0.1,1.301-0.198,2.801-0.1,3.9C96.805,83.389,96.505,82.889,93.705,82.889z"/>
		</g>
		<g style="enable-background:new    ;">
			<path style="fill:#FFD873;" d="M114.902,32.585v0.3c-0.102,16.101-1,33.303-0.102,49.403c-1.3,1.5-12.301,0.101-14.101,0.601
				c1.3-16.902-1-34.803,0.6-50.504v-0.1c0.5-0.1,2.101,0.1,2.802,0.1c1.698,0.1,4.799,0.3,9.1,0.2H114.902z M114.502,11.084
				c0,1.7,0.3,8.8,0.3,12.801c-1.2,1.8-8.3,0.4-13.501,0.7c0-3.9-0.5-7.7-0.4-13.801L114.502,11.084z"/>
		</g>
		<g style="enable-background:new    ;">
			<path style="fill:#DCDBFF;" d="M165.504,33.886c0,0.9,0,1.8-0.1,2.601c-1.602,12.7-14.603,22.201-27.303,20.101
				c0.301,3.7-0.101,5.7,0.399,25.102v0.102c-0.101,0-0.199,0.1-0.3,0.1c-3.7,1-12.2,0.9-16.701,0.4
				c-0.8-19.4,0.102-46.703-0.7-68.905c16.501-4.4,43.503-2.3,44.703,20.402L165.504,33.886L165.504,33.886z M135.701,27.285
				c-0.1,0-0.199,0-0.299,0.1c0.299,4.8-0.4,11,0.898,15h0.301c4.201-0.3,10,0.301,13.201-2.899c2.199-3,1.699-7.801-1.802-9.901
				C144.703,26.885,140.002,26.185,135.701,27.285z"/>
		</g>
	</g>
</g>
</svg>
