<?xml version="1.0" encoding="iso-8859-1"?>
<!-- Generator: Adobe Illustrator 16.0.0, SVG Export Plug-In . SVG Version: 6.00 Build 0)  -->
<!DOCTYPE svg PUBLIC "-//W3C//DTD SVG 1.1//EN" "http://www.w3.org/Graphics/SVG/1.1/DTD/svg11.dtd">
<svg version="1.1" id="Layer_1" xmlns="http://www.w3.org/2000/svg" xmlns:xlink="http://www.w3.org/1999/xlink" x="0px" y="0px"
	 width="170px" height="100px" viewBox="0 0 170 100" style="enable-background:new 0 0 170 100;" xml:space="preserve">
<g>
	<g>
		<path style="fill:#AEAEFF;" d="M90.502,15.001c15.162,0,30.326-0.024,45.489,0.011c6.291,0.015,9.978,3.032,9.966,7.991
			c-0.012,4.96-3.715,7.983-9.979,7.987c-30.66,0.021-61.32,0.021-91.98,0c-6.288-0.005-9.956-3.013-9.959-8.001
			c-0.003-4.974,3.658-7.963,9.973-7.979C59.508,14.978,75.005,15.001,90.502,15.001z"/>
	</g>
	<g>
		<g>
			<path style="fill:#FFD873;" d="M86.502,11.001c15.162,0,30.326-0.024,45.489,0.011c6.291,0.015,9.978,3.032,9.966,7.991
				c-0.012,4.96-3.715,7.983-9.979,7.987c-30.66,0.021-61.32,0.021-91.98,0c-6.288-0.005-9.956-3.013-9.959-8.001
				c-0.003-4.974,3.658-7.963,9.973-7.979C55.508,10.978,71.005,11.001,86.502,11.001z"/>
		</g>
	</g>
</g>
<g>
	<g>
		<path style="fill:#AEAEFF;" d="M89.809,62.998c-15.663-0.002-31.327,0.053-46.989-0.032c-5.379-0.028-8.887-3.462-8.781-8.155
			c0.102-4.493,3.49-7.754,8.652-7.767c31.493-0.068,62.987-0.068,94.479-0.006c5.395,0.011,8.909,3.476,8.787,8.144
			c-0.116,4.487-3.541,7.586-8.658,7.807C136.134,63.037,134.966,63,133.8,63C119.137,63,104.473,63,89.809,62.998z"/>
	</g>
	<g>
		<g>
			<path style="fill:#FFD873;" d="M85.809,58.998c-15.663-0.002-31.327,0.053-46.989-0.032c-5.379-0.028-8.887-3.462-8.781-8.155
				c0.102-4.493,3.49-7.754,8.652-7.767c31.493-0.068,62.987-0.068,94.479-0.006c5.395,0.011,8.909,3.475,8.787,8.144
				c-0.116,4.487-3.541,7.586-8.658,7.807C132.134,59.037,130.966,59,129.8,59C115.137,59,100.473,59,85.809,58.998z"/>
		</g>
	</g>
</g>
<g>
	<g>
		<path style="fill:#AEAEFF;" d="M89.994,79.001c15.33,0,30.66-0.022,45.99,0.011c6.295,0.016,9.979,3.026,9.973,7.984
			c-0.007,4.961-3.711,7.988-9.973,7.994c-30.66,0.021-61.32,0.021-91.98,0c-6.292-0.006-9.958-3.006-9.966-7.994
			c-0.008-4.975,3.655-7.971,9.966-7.984C59.334,78.977,74.665,79.001,89.994,79.001z"/>
	</g>
	<g>
		<g>
			<path style="fill:#FFD873;" d="M85.994,75.001c15.33,0,30.66-0.022,45.99,0.011c6.295,0.016,9.979,3.026,9.973,7.984
				c-0.007,4.961-3.711,7.988-9.973,7.994c-30.66,0.021-61.32,0.021-91.98,0c-6.292-0.006-9.958-3.006-9.966-7.994
				c-0.008-4.975,3.655-7.971,9.966-7.984C55.334,74.977,70.665,75.001,85.994,75.001z"/>
		</g>
	</g>
</g>
</svg>
