<?xml version="1.0" encoding="iso-8859-1"?>
<!-- Generator: Adobe Illustrator 16.0.0, SVG Export Plug-In . SVG Version: 6.00 Build 0)  -->
<!DOCTYPE svg PUBLIC "-//W3C//DTD SVG 1.1//EN" "http://www.w3.org/Graphics/SVG/1.1/DTD/svg11.dtd">
<svg version="1.1" id="Layer_1" xmlns="http://www.w3.org/2000/svg" xmlns:xlink="http://www.w3.org/1999/xlink" x="0px" y="0px"
	 width="200px" height="200px" viewBox="0 0 200 200" style="enable-background:new 0 0 200 200;" xml:space="preserve">
<polygon style="fill:#DCDBFF;" points="0,38.688 0,47.364 45.346,0 37.04,0 "/>
<polygon style="fill:#DCDBFF;" points="86.951,0 0,88.296 0,96.847 95.373,0 89.281,0 "/>
<polygon style="fill:#DCDBFF;" points="0,140.89 0,141.688 0,149.441 147.171,0 138.75,0 "/>
<polygon style="fill:#DCDBFF;" points="154.348,199 162.653,199 200,159.992 200,151.316 "/>
<polygon style="fill:#DCDBFF;" points="105.055,199 113.476,199 200,111.138 200,102.586 "/>
<polygon style="fill:#DCDBFF;" points="53.256,199 61.679,199 200,58.545 200,49.993 "/>
<polygon style="fill:#DCDBFF;" points="194.988,0 0,196.74 0,199 6.208,199 200,3.467 200,0 "/>
</svg>
